<?xml version="1.0" encoding="utf-8"?>
<!-- Generator: Adobe Illustrator 24.3.0, SVG Export Plug-In . SVG Version: 6.00 Build 0)  -->
<svg version="1.1" id="Calque_1" xmlns="http://www.w3.org/2000/svg" xmlns:xlink="http://www.w3.org/1999/xlink" x="0px" y="0px"
	 viewBox="0 0 1569.88 737.38" style="enable-background:new 0 0 1569.88 737.38;" xml:space="preserve">
<style type="text/css">
	.st0{fill:#131B54;}
	.st1{font-family:'ArialMT';}
	.st2{font-size:144.8571px;}
	.st3{fill:none;}
	.st4{fill:#A5A4B4;}
	.st5{font-family:'OpenSans';}
	.st6{font-size:36.2688px;}
	.st7{font-size:67.3064px;}
	.st8{fill:#EEC7EF;}
	.st9{fill:#D6D7F4;}
	.st10{fill:#642966;}
	.st11{fill:#843484;}
	.st12{fill:#FFFFFF;}
	.st13{fill:#FDFDFF;}
	.st14{fill:#FCFCFC;}
	.st15{opacity:0.16;fill:#5571E9;enable-background:new    ;}
	.st16{fill:#F5D100;}
	.st17{clip-path:url(#SVGID_2_);fill:#FFFFFF;}
	.st18{clip-path:url(#SVGID_4_);fill:#FFFFFF;}
	.st19{clip-path:url(#SVGID_6_);fill:#FFFFFF;}
	.st20{clip-path:url(#SVGID_8_);fill:#FFFFFF;}
	.st21{clip-path:url(#SVGID_10_);fill:#FFFFFF;}
	.st22{fill:#14103D;}
	.st23{fill:#EB8175;}
	.st24{fill:#231C61;}
	.st25{fill:#E1AD9D;}
	.st26{fill:#C8C6F2;}
	.st27{fill:#D8D7FD;}
	.st28{fill:#091218;}
	.st29{fill:#1B2934;}
	.st30{fill:#E16C5F;}
	.st31{clip-path:url(#SVGID_12_);fill:#231C61;}
	.st32{clip-path:url(#SVGID_14_);fill:#231C61;}
	.st33{fill:none;stroke:#F1AB00;stroke-width:0.2802;stroke-miterlimit:10;}
	.st34{fill:none;stroke:#FFFFFF;stroke-width:1.1206;stroke-linecap:round;stroke-linejoin:round;stroke-miterlimit:10;}
	.st35{fill:#441944;}
	.st36{fill:#6C2B69;}
	.st37{clip-path:url(#SVGID_16_);fill:#231C61;}
	.st38{clip-path:url(#SVGID_18_);fill:#231C61;}
	.st39{fill:none;stroke:#F1AB00;stroke-width:0.2834;stroke-miterlimit:10;}
	.st40{fill:none;stroke:#FFFFFF;stroke-width:1.1334;stroke-linecap:round;stroke-linejoin:round;stroke-miterlimit:10;}
	.st41{fill:none;stroke:#6C2B69;stroke-width:2.6489;stroke-miterlimit:10;}
	.st42{fill:#3E153F;}
	.st43{fill:none;stroke:#231C61;stroke-width:2.1624;stroke-miterlimit:10;}
	.st44{fill:none;stroke:#231C61;stroke-width:1.1138;stroke-miterlimit:10;}
	.st45{fill:#491C49;}
	.st46{fill:none;stroke:#6C2B69;stroke-width:2.6489;stroke-linecap:round;stroke-linejoin:round;stroke-miterlimit:10;}
	.st47{clip-path:url(#SVGID_20_);fill:#FAFAFA;}
	.st48{clip-path:url(#SVGID_22_);fill:#FAFAFA;}
	.st49{fill:#E8C400;}
	.st50{clip-path:url(#SVGID_24_);fill:#FAFAFA;}
	.st51{clip-path:url(#SVGID_26_);fill:#FAFAFA;}
	.st52{fill:none;stroke:#321033;stroke-width:1.1366;stroke-linecap:round;stroke-linejoin:round;stroke-miterlimit:10;}
	.st53{fill:none;stroke:#6C2B69;stroke-width:1.1366;stroke-linecap:round;stroke-linejoin:round;stroke-miterlimit:10;}
</style>
<g id="BACKGROUNDv">
</g>
<g id="OBJECTS">
	<g>
		<g>
			<g>
				<g>
					<g>
						<g>
							<text transform="matrix(1 0 0 1 25.9717 245.816)" class="st0 st1 st2">Oops!</text>
						</g>
						<rect x="33.79" y="474.7" class="st3" width="503.57" height="48.9"/>
						<text transform="matrix(1 0 0 1 33.7842 502.2633)" class="st4 st5 st6">Veuillez revenir plutard !</text>
						<text transform="matrix(1 0 0 1 29.874 342.4977)" class="st0 st5 st7">Cette page est en </text>
						<text transform="matrix(1 0 0 1 29.874 426.1976)" class="st0 st5 st7">construction</text>
					</g>
				</g>
				<g>
					<g>
						<path class="st8" d="M1541.74,495.99c10.39-33.68,12.82-69.52,5.37-103.98c-11.66-53.9-49.21-119.15-157.57-147.31
							c-205.15-53.31-276.39-209.2-468.29-159.55c0,0-102.99,18.71-151.73,189.12c-48.74,170.42-239.73,173.32-173.97,321.7
							c10.75,24.25,39.69,50.71,81.24,75.7l778.24-2.62C1508.81,604.39,1525.55,548.45,1541.74,495.99z"/>
					</g>
					<g>
						<path class="st9" d="M1358.1,374.13h-29.2v-31.94c0-16.03-11.17-29.43-26.14-32.91v-39.64h-10.75v38.89
							c-17.24,1.55-30.75,16.02-30.75,33.67v32.87h-29.05v36.64h-1.95v68.09l-52.8-0.38v-81.38h-60.49v59.64h-42.44v57.94h-51.3
							v153.37h170.42v-0.02h36.61v0.02h213.7v-193.4h-85.93L1358.1,374.13z"/>
						<polygon class="st9" points="755.59,458.42 755.59,382.18 784.17,382.18 784.17,341.4 794.92,341.4 794.92,382.18 
							821.25,382.18 821.25,458.42 850.8,458.42 850.8,504.1 897.88,504.1 897.88,348.5 996.17,348.5 996.17,668.99 932.12,668.99 
							904.52,668.99 835.09,668.99 803.02,668.99 719.24,668.99 719.24,458.42 						"/>
					</g>
				</g>
				<g>
					<g>
						<g>
							<path class="st10" d="M1292.61,668.21l-448.01,0.35c-16.97,0.01-30.73-13.73-30.75-30.7l0,0l509.46-0.4l0,0
								C1323.32,654.43,1309.58,668.2,1292.61,668.21z"/>
							<path class="st11" d="M1292.6,657.63l-448.01,0.35c-13.25,0.01-24.51-8.38-28.83-20.12h-1.91
								c0.01,16.97,13.78,30.71,30.75,30.7l448.01-0.35c16.97-0.01,30.71-13.78,30.7-30.75h-1.91
								C1317.1,649.22,1305.85,657.62,1292.6,657.63z"/>
							<path class="st12" d="M1097.53,647.92l-57.88,0.05c-5.68,0-10.29-4.6-10.29-10.28l0,0l78.45-0.06l0,0
								C1107.81,643.31,1103.21,647.92,1097.53,647.92z"/>
						</g>
						<g>
							<path class="st11" d="M1297.09,637.48l-457.02,0.36l-0.22-275.85c-0.01-15.83,12.81-28.66,28.63-28.68l399.71-0.31
								c15.83-0.01,28.66,12.81,28.68,28.63L1297.09,637.48z"/>
							<rect x="863.75" y="356.99" class="st13" width="409.42" height="256.84"/>
							<rect x="863.84" y="589.28" class="st12" width="409.42" height="24.55"/>
							<rect x="863.66" y="356.99" class="st14" width="409.42" height="12.19"/>
							<g>
								<polygon class="st15" points="1000.2,357.04 863.76,493.69 863.85,613.99 864.15,613.99 1120.79,356.95 								"/>
								<polygon class="st15" points="916.72,613.96 977.18,613.9 1233.82,356.86 1173.36,356.92 								"/>
								<polygon class="st15" points="1225.12,613.71 1273.24,565.51 1273.17,474.32 1128.72,613.77 								"/>
							</g>
						</g>
					</g>
					<g>
						<g>
							<rect id="XMLID_8_" x="839.86" y="466.69" class="st16" width="457.24" height="50.47"/>
						</g>
						<g>
							<defs>
								<rect id="SVGID_1_" x="839.86" y="466.69" width="457.24" height="50.47"/>
							</defs>
							<clipPath id="SVGID_2_">
								<use xlink:href="#SVGID_1_"  style="overflow:visible;"/>
							</clipPath>
							<polygon class="st17" points="896.9,534.87 857.56,534.87 891.42,457.41 930.76,457.41 							"/>
						</g>
						<g>
							<defs>
								<rect id="SVGID_3_" x="839.86" y="466.69" width="457.24" height="50.47"/>
							</defs>
							<clipPath id="SVGID_4_">
								<use xlink:href="#SVGID_3_"  style="overflow:visible;"/>
							</clipPath>
							<polygon class="st18" points="980.8,534.87 941.45,534.87 975.32,457.41 1014.66,457.41 							"/>
						</g>
						<g>
							<defs>
								<rect id="SVGID_5_" x="839.86" y="466.69" width="457.24" height="50.47"/>
							</defs>
							<clipPath id="SVGID_6_">
								<use xlink:href="#SVGID_5_"  style="overflow:visible;"/>
							</clipPath>
							<polygon class="st19" points="1064.69,534.87 1025.35,534.87 1059.22,457.41 1098.56,457.41 							"/>
						</g>
						<g>
							<defs>
								<rect id="SVGID_7_" x="839.86" y="466.69" width="457.24" height="50.47"/>
							</defs>
							<clipPath id="SVGID_8_">
								<use xlink:href="#SVGID_7_"  style="overflow:visible;"/>
							</clipPath>
							<polygon class="st20" points="1148.59,534.87 1109.25,534.87 1143.11,457.41 1182.46,457.41 							"/>
						</g>
						<g>
							<defs>
								<rect id="SVGID_9_" x="839.86" y="466.69" width="457.24" height="50.47"/>
							</defs>
							<clipPath id="SVGID_10_">
								<use xlink:href="#SVGID_9_"  style="overflow:visible;"/>
							</clipPath>
							<polygon class="st21" points="1232.49,534.87 1193.15,534.87 1227.01,457.41 1266.35,457.41 							"/>
						</g>
					</g>
				</g>
				<g>
					<g>
						<g>
							<g>
								<g>
									<path class="st22" d="M803.14,379.54l-8.94,0.34l-5.23-1.66c-2.4-0.76-5.02,0.15-6.43,2.24l-0.66,0.98l26.13,14.43
										l5.05-10.84L803.14,379.54z"/>
									<path class="st22" d="M808.02,396.11l-26.34-14.55l0.92-1.67c0.18-0.33,0.6-0.45,0.92-0.27l25.74,14.22L808.02,396.11"/>
								</g>
								<polygon class="st23" points="813.07,385.04 819.97,373.09 813.07,360.76 803.14,379.54 								"/>
							</g>
							<path class="st22" d="M867.15,316.32c0,0-37.24-10.69-40.82-0.63c-3.59,10.05-25.31,54.54-25.31,54.54l16.22,8.46
								l24.32-42.24l32.72-2.85L867.15,316.32z"/>
						</g>
						<g>
							<g>
								<g>
									<path class="st22" d="M836.88,393.1l-7.29,4.64l-5.38,1.08c-2.47,0.5-4.32,2.57-4.54,5.08l-0.1,1.18l29.85-0.05
										l-0.84-11.93L836.88,393.1z"/>
									<path class="st22" d="M849.54,405.23l-30.09,0.05v-1.9c0-0.38,0.3-0.68,0.68-0.68l29.41-0.04L849.54,405.23"/>
								</g>
								<polygon class="st23" points="848.58,393.11 849.54,373.09 837.65,371.75 836.88,393.1 								"/>
							</g>
							<path class="st24" d="M872.18,314.61l-35.1,1.6c0,0-5.05,0.28-4.71,12.09c0.34,11.82,0.31,59.36,0.31,59.36l16.86,0.58
								l3.23-49.81L887.9,338c7.41-0.09,14.29-4.34,17.23-11.14c1.12-2.6,1.66-5.52,0.97-8.58L872.18,314.61z"/>
						</g>
					</g>
					<g>
						<g>
							<g>
								<path class="st25" d="M838.87,307.53c0.01,3.33-2.25,3.83-5.58,3.84s-6.47-0.49-6.48-3.82c-0.01-3.33,2.69-6.04,6.02-6.04
									C836.16,301.51,838.87,304.2,838.87,307.53z"/>
								<path class="st25" d="M843.11,310.94l-6.97,0.01c-1.82,0-3.31-1.48-3.32-3.3l0,0c0-1.82,1.48-3.31,3.3-3.32l6.97-0.01
									c1.82,0,3.31,1.48,3.32,3.3l0,0C846.42,309.44,844.93,310.93,843.11,310.94z"/>
							</g>
							<path class="st26" d="M842.84,311.65l-2.32-11.41l28.65-3.12l5.73-33.48c0.58-3.04,4.98-6.82,8.03-6.24l-0.88-0.25
								c3.04,0.58,5.84,4.11,5.26,7.16l-5.58,40.05c-0.41,2.16-2.05,3.88-4.18,4.4L842.84,311.65z"/>
						</g>
						<path class="st27" d="M900.08,258.13c0.59,0.05,1.17,0.18,1.72,0.4l0.29,0.11c4.92,1.92,8.25,7.2,8.47,12.14l-4.48,47.5
							c-29.69-0.26-33.91-3.68-33.91-3.68l2.36-48.59c0.36-4.58,2.46-8.89,7.68-9.33l0,0L900.08,258.13z"/>
						<g>
							<g>
								<g>
									<path class="st23" d="M867.39,311.27c0.23,3.32-1.99,3.98-5.31,4.2c-3.32,0.23-6.49-0.05-6.72-3.38
										c-0.23-3.32,2.28-6.2,5.6-6.43C864.28,305.44,867.16,307.95,867.39,311.27z"/>
									<path class="st23" d="M871.84,314.38l-6.95,0.48c-1.82,0.12-3.4-1.26-3.53-3.08l0,0c-0.12-1.82,1.26-3.41,3.08-3.53
										l6.95-0.48c1.82-0.12,3.4,1.26,3.53,3.08l0,0C875.04,312.67,873.65,314.26,871.84,314.38z"/>
								</g>
								<path class="st27" d="M871.62,315.11l-3.08-11.23l31.23-5.02l-1.78-29.04c0.37-3.07,3.74-6.53,6.82-6.16l0,0
									c3.07,0.37,6.1,3.72,5.72,6.79l2.25,34.79c-0.27,2.18-1.78,4.01-3.88,4.67L871.62,315.11z"/>
							</g>
						</g>
						<g>
							<path class="st28" d="M817.59,276.53l34.07,3.21c1.12,0.11,2.01,0.98,2.14,2.1l3.58,30.7c0.18,1.51-1.08,2.79-2.59,2.65
								l-34.64-3.27c-1.14-0.11-2.04-1-2.15-2.14l-3.01-30.65C814.84,277.64,816.09,276.39,817.59,276.53z"/>
							<path class="st29" d="M815.63,276.34l34.07,3.21c1.12,0.11,2.01,0.98,2.14,2.1l3.58,30.7c0.18,1.51-1.08,2.79-2.59,2.65
								l-34.64-3.27c-1.14-0.11-2.04-1.01-2.15-2.14l-3.01-30.65C812.88,277.46,814.13,276.2,815.63,276.34z"/>
							<path class="st28" d="M856.43,312.76l23.28,2.2c0.71,0.07,1.23,0.7,1.16,1.41l0,0c-0.07,0.71-0.7,1.23-1.41,1.16l-24.69-2.24
								L856.43,312.76z"/>
							<path class="st12" d="M835.15,294.97c-0.19,2.05-2.01,3.56-4.06,3.36c-2.05-0.19-3.56-2.01-3.36-4.06
								c0.19-2.05,2.01-3.56,4.06-3.36C833.84,291.1,835.35,292.92,835.15,294.97z"/>
						</g>
						<polygon class="st26" points="896.91,276.52 897.67,298.35 868.54,303.88 894.21,295.86 						"/>
					</g>
					<g>
						<g>
							<path class="st23" d="M881.45,255.24l1.95,5.23c0.7,1.89,2.44,3.18,4.45,3.32l0,0c3.81,0.26,6.55-3.6,5.06-7.11l-3.42-8.03
								L881.45,255.24z"/>
							<path class="st30" d="M883.19,259.89c0,0,9.6-1.81,8.19-10.2c-1.41-8.39-10.43-1.84-10.43-1.84l0.88,8.37L883.19,259.89z"/>
							<g>
								<g>
									<g>
										<path id="XMLID_1_" class="st23" d="M868.39,234.79c-3.52,7.53-0.27,16.49,7.26,20.01c7.53,3.52,16.49,0.27,20.01-7.26
											s0.27-16.49-7.26-20.01C880.87,224.01,871.91,227.26,868.39,234.79z"/>
									</g>
									<g>
										<defs>
											<path id="SVGID_11_" d="M868.39,234.79c-3.52,7.53-0.27,16.49,7.26,20.01c7.53,3.52,16.49,0.27,20.01-7.26
												s0.27-16.49-7.26-20.01C880.87,224.01,871.91,227.26,868.39,234.79z"/>
										</defs>
										<clipPath id="SVGID_12_">
											<use xlink:href="#SVGID_11_"  style="overflow:visible;"/>
										</clipPath>
										<path class="st31" d="M887.6,244.13c0,0-2.37,12.06,6.49,12.32s4.04-22.62,4.04-22.62l-14.03-14.11L862.64,225l2.13,13.88
											c0,0,3.41,1.81,21.86-1.23L887.6,244.13z"/>
									</g>
									<g>
										<defs>
											<path id="SVGID_13_" d="M868.39,234.79c-3.52,7.53-0.27,16.49,7.26,20.01c7.53,3.52,16.49,0.27,20.01-7.26
												s0.27-16.49-7.26-20.01C880.87,224.01,871.91,227.26,868.39,234.79z"/>
										</defs>
										<clipPath id="SVGID_14_">
											<use xlink:href="#SVGID_13_"  style="overflow:visible;"/>
										</clipPath>
										<polygon class="st32" points="878.84,234.7 885.89,245.01 891.97,238.29 										"/>
									</g>
								</g>
								<path class="st23" d="M885.23,241.33c-1,2.13-0.08,4.66,2.05,5.66s4.66,0.08,5.66-2.05c1-2.13,0.08-4.66-2.05-5.66
									C888.76,238.29,886.23,239.2,885.23,241.33z"/>
							</g>
						</g>
						<g>
							<path class="st16" d="M865.46,238.65c0,0-3.25-11.86,4.44-19.21c6.34-6.06,16.71-5.66,22.34,1.06
								c2.64,3.16,4.77,7.91,4.97,15.06L865.46,238.65z"/>
							<path class="st33" d="M867.09,238.45l-0.09-7.41c-0.02-1.88,1.45-3.44,3.32-3.53l0,0c1.85-0.09,3.45,1.29,3.63,3.13
								l0.74,7.39"/>
							<line class="st34" x1="897.21" y1="235.56" x2="862.67" y2="238.88"/>
						</g>
					</g>
				</g>
				<g>
					<g>
						<g>
							<polygon class="st23" points="1211.68,635.79 1219.43,643.29 1210.6,648.04 1203.04,640.63 							"/>
							<path class="st22" d="M1157.18,579.76l5.17,22.9c1.04,4.58,3.03,8.99,5.89,13.03l34.06,30.6l13.47-10.97l-29.08-30.79
								l-10.65-40.61L1157.18,579.76z"/>
							<g>
								<path class="st22" d="M1210.34,647.82l-2.79,8.9l-3.19,4.43c-1.47,2.04-1.41,4.8,0.13,6.78l0.72,0.93l21.73-20.25
									l-8.69-8.13L1210.34,647.82z"/>
								<polyline class="st22" points="1227.17,648.67 1205.27,669.08 1203.51,667.2 1225.41,646.79 1227.17,648.67 								"/>
							</g>
						</g>
						<g>
							<polygon class="st23" points="1137.21,649.72 1134.31,659.42 1124.33,656.74 1127.25,647.22 							"/>
							<path class="st24" d="M1150.58,554.21l-27.94,94.44l17.63,4.4l15.73-47.34l19.32-30.97c0.98-1.38,1.95-2.83,2.76-4.33
								c1.55-2.83,2.24-5.92,2.21-9.02l-0.07-6.14L1150.58,554.21z"/>
							<g>
								<path class="st22" d="M1124.91,655.81l-8.81,3.26l-5.5,0.19c-2.53,0.09-4.69,1.83-5.32,4.28l-0.29,1.15l29.53,4.86
									l1.13-11.93L1124.91,655.81z"/>
								<polyline class="st22" points="1134.59,669.75 1104.83,664.85 1105.25,662.3 1135.01,667.19 1134.59,669.75 								"/>
							</g>
						</g>
					</g>
					<g>
						<g>
							<g>
								<polygon class="st35" points="1111.59,458.29 1100.3,475.91 1105.71,479.8 1117.4,461.16 								"/>
								<path class="st36" d="M1096.93,429.1c0,0,5.22,21.84,31.65,30.43c0.76,0.25,1.34,0.89,1.45,1.68c0.34,2.53,0.34,8-5.51,9.62
									c-0.55,0.15-1.17,0.04-1.65-0.26c-4.04-2.53-23.93-14.16-43.24-10.8L1096.93,429.1z"/>
								<path class="st35" d="M1096.93,429.1c0,0-4.85,21.78-17.29,30.66C1079.63,459.76,1081.39,440.66,1096.93,429.1z"/>
							</g>
							<g>
								<g>
									<g>
										<path class="st23" d="M1096.62,474.77c-0.82,4.01,2.48,8.9,6.49,9.72c4.01,0.82,7.92-1.77,8.74-5.77
											c0.82-4.01-2.48-8.9-6.49-9.72C1101.35,468.17,1097.44,470.76,1096.62,474.77z"/>
									</g>
									<polyline class="st23" points="1117.83,486.53 1110,478.36 1104.89,484.65 1117.83,494.13 									"/>
								</g>
								<path class="st26" d="M1116.59,478.97l-8.27,12.3l22.62,20.71c1.38,0.39,2.82,0.53,4.25,0.41l29.87-3.87
									c4.71-0.22,8.34-4.22,8.12-8.93l0,0c-0.22-4.71,0.68-11.52-4.03-11.3l-34.71,7.13L1116.59,478.97z"/>
							</g>
						</g>
						<g>
							<g>
								<path class="st27" d="M1183.59,507.2c0.8-6.53-2.16-12.99-7.7-16.53c-2.49-1.59-4.95-2.67-6.73-2.37
									c-5.96,1.01-12.08,3.71-14.7,11.75c-4.46,13.68-5.73,54.11-5.73,54.11l32.02,1.09L1183.59,507.2z"/>
							</g>
							<polygon class="st26" points="1171.77,508.22 1181.39,543.6 1183.34,513.58 							"/>
						</g>
						<g>
							<g>
								<g>
									<path class="st23" d="M1211.01,578.04c3.03-2.75,3.25-8.65,0.5-11.68c-2.75-3.03-7.44-3.25-10.46-0.5
										c-3.03,2.75-3.25,8.65-0.5,11.67C1203.3,580.57,1207.98,580.79,1211.01,578.04z"/>
								</g>
								<polyline class="st23" points="1196.48,552.83 1202.32,567.24 1210.16,565.18 1205.31,549.88 								"/>
							</g>
							<path class="st27" d="M1196.86,563.95l16.03-3.53l-10.88-37.19c-0.4-1.38-1.05-2.67-1.92-3.82l-19.96-24.85
								c-2.7-3.86-7.25-3.17-11.11-0.48l0,0c-3.86,2.7-4.81,8.02-2.11,11.88l19.23,23.12L1196.86,563.95z"/>
						</g>
					</g>
					<g>
						<g>
							<path class="st23" d="M1161.66,483.43l0.61,5.61c0.22,2.02,1.6,3.73,3.54,4.36l0,0c3.67,1.2,7.32-1.9,6.73-5.71l-1.35-8.72
								L1161.66,483.43z"/>
							<path class="st30" d="M1162.2,488.43c0,0,9.89-0.32,10.6-8.9c0.71-8.57-9.8-3.47-9.8-3.47l-1.22,8.43L1162.2,488.43z"/>
							<g>
								<g>
									<g>
										<path id="XMLID_11_" class="st23" d="M1153.94,460.13c-5.33,6.51-4.37,16.1,2.13,21.42c6.51,5.33,16.1,4.37,21.42-2.13
											c5.33-6.51,4.37-16.1-2.13-21.42C1168.86,452.67,1159.27,453.63,1153.94,460.13z"/>
									</g>
									<g>
										<defs>
											<path id="SVGID_15_" d="M1153.94,460.13c-5.33,6.51-4.37,16.1,2.13,21.42c6.51,5.33,16.1,4.37,21.42-2.13
												c5.33-6.51,4.37-16.1-2.13-21.42C1168.86,452.67,1159.27,453.63,1153.94,460.13z"/>
										</defs>
										<clipPath id="SVGID_16_">
											<use xlink:href="#SVGID_15_"  style="overflow:visible;"/>
										</clipPath>
										<path class="st37" d="M1170.45,474.07c0,0-5.33,11.23,3.3,13.7c8.62,2.47,9.59-21.17,9.59-21.17l-10.24-17.33l-22.35-0.17
											l-1.37,14.13c0,0,2.89,2.62,21.74,4.24L1170.45,474.07z"/>
									</g>
									<g>
										<defs>
											<path id="SVGID_17_" d="M1153.94,460.13c-5.33,6.51-4.37,16.1,2.13,21.42c6.51,5.33,16.1,4.37,21.42-2.13
												c5.33-6.51,4.37-16.1-2.13-21.42C1168.86,452.67,1159.27,453.63,1153.94,460.13z"/>
										</defs>
										<clipPath id="SVGID_18_">
											<use xlink:href="#SVGID_17_"  style="overflow:visible;"/>
										</clipPath>
										<polygon class="st38" points="1164.22,462.64 1168.56,474.51 1176.19,469.44 										"/>
									</g>
								</g>
								<path class="st23" d="M1168.83,470.74c-1.51,1.84-1.24,4.55,0.6,6.06s4.55,1.24,6.06-0.6c1.51-1.84,1.24-4.55-0.6-6.06
									C1173.04,468.63,1170.33,468.9,1168.83,470.74z"/>
							</g>
						</g>
						<g>
							<path class="st16" d="M1150.02,464.49c0,0-0.75-12.42,8.4-18.08c7.54-4.67,17.72-2.12,21.89,5.71
								c1.96,3.68,3.07,8.82,1.77,15.94L1150.02,464.49z"/>
							<path class="st39" d="M1151.68,464.64l1.45-7.35c0.37-1.86,2.15-3.1,4.02-2.8l0,0c1.85,0.3,3.14,2,2.94,3.86l-0.81,7.47"/>
							<line class="st40" x1="1182.08" y1="468.06" x2="1147.21" y2="464.14"/>
						</g>
					</g>
				</g>
				<g>
					<g>
						<line class="st41" x1="1394.95" y1="558.32" x2="1358.87" y2="593.9"/>
						<line class="st41" x1="1394.95" y1="520.31" x2="1358.87" y2="555.88"/>
						<line class="st41" x1="1394.95" y1="482.29" x2="1358.87" y2="517.87"/>
						<line class="st41" x1="1394.95" y1="444.28" x2="1358.87" y2="479.85"/>
						<line class="st41" x1="1394.95" y1="406.26" x2="1358.87" y2="441.84"/>
						<line class="st41" x1="1394.95" y1="368.25" x2="1358.87" y2="403.82"/>
						<line class="st41" x1="1394.95" y1="330.23" x2="1358.87" y2="365.81"/>
						<line class="st41" x1="1394.95" y1="292.22" x2="1358.87" y2="327.79"/>
						<line class="st41" x1="1394.95" y1="254.2" x2="1358.87" y2="289.78"/>
						<line class="st41" x1="1394.95" y1="216.19" x2="1358.87" y2="251.76"/>
						<line class="st41" x1="1394.95" y1="178.17" x2="1358.87" y2="213.75"/>
						<line class="st41" x1="1358.87" y1="555.88" x2="1394.95" y2="555.88"/>
						<line class="st41" x1="1358.87" y1="517.87" x2="1394.95" y2="517.87"/>
						<line class="st41" x1="1358.87" y1="479.85" x2="1394.95" y2="479.85"/>
						<line class="st41" x1="1358.87" y1="441.84" x2="1394.95" y2="441.84"/>
						<line class="st41" x1="1358.87" y1="403.82" x2="1394.95" y2="403.82"/>
						<line class="st41" x1="1358.87" y1="365.81" x2="1394.95" y2="365.81"/>
						<line class="st41" x1="1358.87" y1="327.79" x2="1394.95" y2="327.79"/>
						<line class="st41" x1="1358.87" y1="289.78" x2="1394.95" y2="289.78"/>
						<line class="st41" x1="1358.87" y1="251.76" x2="1394.95" y2="251.76"/>
						<line class="st41" x1="1358.87" y1="213.75" x2="1394.95" y2="213.75"/>
						<line class="st41" x1="1358.87" y1="604.2" x2="1358.87" y2="184.25"/>
						<line class="st41" x1="1394.95" y1="604.2" x2="1394.95" y2="184.25"/>
						<rect x="1340.26" y="593.9" class="st36" width="71.86" height="74.66"/>
					</g>
					<g>
						<g>
							<path class="st36" d="M1402.75,184.25h-52.96c-2.38,0-4.3-1.93-4.3-4.3v-62.51c0-2.38,1.93-4.3,4.3-4.3h52.96
								c2.38,0,4.3,1.93,4.3,4.3v62.51C1407.05,182.33,1405.12,184.25,1402.75,184.25z"/>
							<path class="st42" d="M1381.11,163.56h-30.01v-33.27h30.01c1.8,0,3.26,1.46,3.26,3.26v26.75
								C1384.37,162.1,1382.91,163.56,1381.11,163.56z"/>
						</g>
						<g>
							<g>
								<line class="st43" x1="1120.79" y1="188.13" x2="1149.66" y2="271.99"/>
								<line class="st43" x1="1100.71" y1="178.17" x2="1044.42" y2="254.2"/>
								<g>
									<path class="st16" d="M1110.09,205.75l73.04,95.51c2.29,3,1.72,7.29-1.28,9.59l-95.51,73.04c-3,2.29-7.29,1.72-9.59-1.28
										l-73.04-95.51c-2.29-3-1.72-7.29,1.28-9.59l95.51-73.04C1103.5,202.18,1107.79,202.75,1110.09,205.75z"/>
									<path class="st44" d="M1107.06,221.83l59.76,78.15c1.88,2.45,1.41,5.97-1.05,7.84l-78.15,59.76
										c-2.45,1.88-5.97,1.41-7.84-1.05l-59.76-78.15c-1.88-2.45-1.41-5.97,1.05-7.84l78.14-59.76
										C1101.67,218.91,1105.18,219.38,1107.06,221.83z"/>
									<g>
										<path class="st24" d="M1098.36,322.57c-1.51,11.29-18.64,9.01-17.14-2.28C1082.74,308.89,1099.88,311.17,1098.36,322.57z
											 M1105.73,259.47l-6.73,47.47l-14.41-1.92c2.13-15.97,3.9-31.49,6.04-47.56L1105.73,259.47z"/>
									</g>
								</g>
							</g>
							<g>
								<g>
									<circle class="st45" cx="1112.56" cy="171.07" r="24.13"/>
									<path class="st36" d="M1129.62,171.07c0,9.42-7.64,17.06-17.06,17.06s-17.06-7.64-17.06-17.06
										c0-9.42,7.64-17.06,17.06-17.06S1129.62,161.64,1129.62,171.07z"/>
								</g>
								<g>
									<line class="st41" x1="1207.19" y1="61.99" x2="1207.19" y2="113.15"/>
									<line class="st41" x1="1161.32" y1="61.99" x2="1161.32" y2="113.15"/>
									<line class="st41" x1="1252.91" y1="61.99" x2="1252.91" y2="113.15"/>
									<line class="st41" x1="1303.71" y1="61.99" x2="1303.71" y2="113.15"/>
									<line class="st41" x1="1351.1" y1="61.99" x2="1351.1" y2="113.15"/>
									<line class="st41" x1="1400.23" y1="61.99" x2="1400.23" y2="113.15"/>
									<line class="st41" x1="1448.49" y1="61.99" x2="1448.49" y2="113.15"/>
									<line class="st41" x1="1158.93" y1="113.15" x2="1207.19" y2="61.99"/>
									<line class="st41" x1="1207.19" y1="113.15" x2="1255.45" y2="61.99"/>
									<line class="st41" x1="1255.45" y1="113.15" x2="1303.71" y2="61.99"/>
									<line class="st41" x1="1303.71" y1="113.15" x2="1351.97" y2="61.99"/>
									<line class="st41" x1="1351.97" y1="113.15" x2="1400.23" y2="61.99"/>
									<line class="st41" x1="1400.23" y1="113.15" x2="1448.49" y2="61.99"/>
									<polygon class="st46" points="1112.56,113.15 1506.04,113.15 1453.06,61.99 1153.26,61.99 									"/>
									<line class="st46" x1="1112.56" y1="113.15" x2="1112.56" y2="171.07"/>
								</g>
							</g>
						</g>
					</g>
				</g>
				<g>
					<g>
						<g>
							<g>
								<path id="XMLID_4_" class="st16" d="M904.53,661.65l27.54-71.19c1.31-3.39,6.11-3.39,7.43,0l27.54,71.19H904.53z"/>
							</g>
							<g>
								<defs>
									<path id="SVGID_19_" d="M904.53,661.65l27.54-71.19c1.31-3.39,6.11-3.39,7.43,0l27.54,71.19H904.53z"/>
								</defs>
								<clipPath id="SVGID_20_">
									<use xlink:href="#SVGID_19_"  style="overflow:visible;"/>
								</clipPath>
								<rect x="910.91" y="605.77" class="st47" width="48.9" height="15.11"/>
							</g>
							<g>
								<defs>
									<path id="SVGID_21_" d="M904.53,661.65l27.54-71.19c1.31-3.39,6.11-3.39,7.43,0l27.54,71.19H904.53z"/>
								</defs>
								<clipPath id="SVGID_22_">
									<use xlink:href="#SVGID_21_"  style="overflow:visible;"/>
								</clipPath>
								<rect x="908.24" y="634.32" class="st48" width="55.31" height="15.11"/>
							</g>
						</g>
						<rect x="899.49" y="661.65" class="st49" width="72.9" height="6"/>
					</g>
					<g>
						<g>
							<g>
								<path id="XMLID_3_" class="st16" d="M1304.48,661.87l27.54-71.19c1.31-3.39,6.11-3.39,7.43,0l27.55,71.19H1304.48z"/>
							</g>
							<g>
								<defs>
									<path id="SVGID_23_" d="M1304.48,661.87l27.54-71.19c1.31-3.39,6.11-3.39,7.43,0l27.55,71.19H1304.48z"/>
								</defs>
								<clipPath id="SVGID_24_">
									<use xlink:href="#SVGID_23_"  style="overflow:visible;"/>
								</clipPath>
								<rect x="1310.86" y="605.99" class="st50" width="48.9" height="15.11"/>
							</g>
							<g>
								<defs>
									<path id="SVGID_25_" d="M1304.48,661.87l27.54-71.19c1.31-3.39,6.11-3.39,7.43,0l27.55,71.19H1304.48z"/>
								</defs>
								<clipPath id="SVGID_26_">
									<use xlink:href="#SVGID_25_"  style="overflow:visible;"/>
								</clipPath>
								<rect x="1308.19" y="634.54" class="st51" width="55.31" height="15.11"/>
							</g>
						</g>
						<rect x="1299.45" y="661.87" class="st49" width="72.9" height="6"/>
					</g>
				</g>
				<g>
					<g>
						<ellipse class="st36" cx="754.93" cy="542.65" rx="57.2" ry="57.2"/>
						<g>
							<line class="st52" x1="754.93" y1="522.28" x2="754.93" y2="667.65"/>
							<line class="st52" x1="732.69" y1="525.24" x2="754.93" y2="550.18"/>
							<path class="st52" d="M774.66,548.81c-1.59,1.59-19.73,20.48-19.73,20.48"/>
						</g>
					</g>
					<line class="st53" x1="582.76" y1="669.05" x2="1542.21" y2="669.05"/>
				</g>
			</g>
		</g>
	</g>
</g>
<g id="DESIGNED_BY_FREEPIK">
</g>
</svg>
